<svg width="30" height="26" viewBox="0 0 30 26" fill="none" xmlns="http://www.w3.org/2000/svg">
<path d="M9.36888 10.75H24.3687L26.5122 3.25011H6.64192L9.36888 10.75Z" fill="#EBEBEB"/>
<path d="M28.4996 0.250153H0V3.25011H3.44996L8.37289 16.7874C9.01639 18.5589 10.7174 19.7499 12.6013 19.7499H25.4997V16.7499H12.6013C11.9728 16.7499 11.4059 16.3524 11.1914 15.763L10.4594 13.75H24.3687C25.7037 13.75 26.8887 12.853 27.2532 11.5735L29.9426 2.16263C30.0716 1.70963 29.9801 1.22364 29.6981 0.847145C29.4131 0.470649 28.9691 0.250153 28.4996 0.250153ZM24.3687 10.75H9.36888L6.64192 3.25011H26.5122L24.3687 10.75Z" fill="#616161"/>
<path d="M12.7498 25.7498C13.9925 25.7498 14.9998 24.7425 14.9998 23.4999C14.9998 22.2572 13.9925 21.2499 12.7498 21.2499C11.5072 21.2499 10.4999 22.2572 10.4999 23.4999C10.4999 24.7425 11.5072 25.7498 12.7498 25.7498Z" fill="#616161"/>
<path d="M21.7497 25.7498C22.9924 25.7498 23.9997 24.7425 23.9997 23.4999C23.9997 22.2572 22.9924 21.2499 21.7497 21.2499C20.5071 21.2499 19.4998 22.2572 19.4998 23.4999C19.4998 24.7425 20.5071 25.7498 21.7497 25.7498Z" fill="#616161"/>
</svg>
