<svg width="162" height="38" viewBox="0 0 162 38" fill="none" xmlns="http://www.w3.org/2000/svg">
<path d="M6.42 17.23H16.86V20.44H6.42V17.23ZM6.72 26.23H18.57V29.5H2.82V8.5H18.15V11.77H6.72V26.23ZM29.6712 35.53C28.1912 35.53 26.7412 35.33 25.3212 34.93C23.9212 34.55 22.7712 33.99 21.8712 33.25L23.5512 30.43C24.2512 31.01 25.1312 31.47 26.1912 31.81C27.2712 32.17 28.3612 32.35 29.4612 32.35C31.2212 32.35 32.5112 31.94 33.3312 31.12C34.1512 30.32 34.5612 29.11 34.5612 27.49V24.64L34.8612 21.01L34.7412 17.38V13.48H38.3112V27.07C38.3112 29.97 37.5712 32.1 36.0912 33.46C34.6112 34.84 32.4712 35.53 29.6712 35.53ZM29.1912 28.78C27.6712 28.78 26.2912 28.46 25.0512 27.82C23.8312 27.16 22.8612 26.25 22.1412 25.09C21.4412 23.93 21.0912 22.57 21.0912 21.01C21.0912 19.47 21.4412 18.12 22.1412 16.96C22.8612 15.8 23.8312 14.9 25.0512 14.26C26.2912 13.62 27.6712 13.3 29.1912 13.3C30.5512 13.3 31.7712 13.57 32.8512 14.11C33.9312 14.65 34.7912 15.49 35.4312 16.63C36.0912 17.77 36.4212 19.23 36.4212 21.01C36.4212 22.79 36.0912 24.26 35.4312 25.42C34.7912 26.56 33.9312 27.41 32.8512 27.97C31.7712 28.51 30.5512 28.78 29.1912 28.78ZM29.7612 25.6C30.7012 25.6 31.5412 25.41 32.2812 25.03C33.0212 24.63 33.5912 24.09 33.9912 23.41C34.4112 22.71 34.6212 21.91 34.6212 21.01C34.6212 20.11 34.4112 19.32 33.9912 18.64C33.5912 17.94 33.0212 17.41 32.2812 17.05C31.5412 16.67 30.7012 16.48 29.7612 16.48C28.8212 16.48 27.9712 16.67 27.2112 17.05C26.4712 17.41 25.8912 17.94 25.4712 18.64C25.0712 19.32 24.8712 20.11 24.8712 21.01C24.8712 21.91 25.0712 22.71 25.4712 23.41C25.8912 24.09 26.4712 24.63 27.2112 25.03C27.9712 25.41 28.8212 25.6 29.7612 25.6ZM50.5013 35.53C49.0213 35.53 47.5713 35.33 46.1513 34.93C44.7513 34.55 43.6013 33.99 42.7013 33.25L44.3813 30.43C45.0813 31.01 45.9613 31.47 47.0213 31.81C48.1013 32.17 49.1913 32.35 50.2913 32.35C52.0513 32.35 53.3413 31.94 54.1613 31.12C54.9813 30.32 55.3913 29.11 55.3913 27.49V24.64L55.6913 21.01L55.5713 17.38V13.48H59.1413V27.07C59.1413 29.97 58.4013 32.1 56.9213 33.46C55.4413 34.84 53.3013 35.53 50.5013 35.53ZM50.0213 28.78C48.5013 28.78 47.1213 28.46 45.8813 27.82C44.6613 27.16 43.6913 26.25 42.9713 25.09C42.2713 23.93 41.9213 22.57 41.9213 21.01C41.9213 19.47 42.2713 18.12 42.9713 16.96C43.6913 15.8 44.6613 14.9 45.8813 14.26C47.1213 13.62 48.5013 13.3 50.0213 13.3C51.3813 13.3 52.6013 13.57 53.6813 14.11C54.7613 14.65 55.6213 15.49 56.2613 16.63C56.9213 17.77 57.2513 19.23 57.2513 21.01C57.2513 22.79 56.9213 24.26 56.2613 25.42C55.6213 26.56 54.7613 27.41 53.6813 27.97C52.6013 28.51 51.3813 28.78 50.0213 28.78ZM50.5913 25.6C51.5313 25.6 52.3713 25.41 53.1113 25.03C53.8513 24.63 54.4213 24.09 54.8213 23.41C55.2413 22.71 55.4513 21.91 55.4513 21.01C55.4513 20.11 55.2413 19.32 54.8213 18.64C54.4213 17.94 53.8513 17.41 53.1113 17.05C52.3713 16.67 51.5313 16.48 50.5913 16.48C49.6513 16.48 48.8013 16.67 48.0413 17.05C47.3013 17.41 46.7213 17.94 46.3013 18.64C45.9013 19.32 45.7013 20.11 45.7013 21.01C45.7013 21.91 45.9013 22.71 46.3013 23.41C46.7213 24.09 47.3013 24.63 48.0413 25.03C48.8013 25.41 49.6513 25.6 50.5913 25.6Z" fill="#616161"/>
<path d="M97.81 29.71C96.13 29.71 94.63 29.36 93.31 28.66C92.01 27.94 90.99 26.96 90.25 25.72C89.51 24.48 89.14 23.07 89.14 21.49C89.14 19.89 89.51 18.48 90.25 17.26C90.99 16.02 92.01 15.05 93.31 14.35C94.63 13.65 96.13 13.3 97.81 13.3C99.37 13.3 100.74 13.62 101.92 14.26C103.12 14.88 104.03 15.8 104.65 17.02L101.77 18.7C101.29 17.94 100.7 17.38 100 17.02C99.32 16.66 98.58 16.48 97.78 16.48C96.86 16.48 96.03 16.68 95.29 17.08C94.55 17.48 93.97 18.06 93.55 18.82C93.13 19.56 92.92 20.45 92.92 21.49C92.92 22.53 93.13 23.43 93.55 24.19C93.97 24.93 94.55 25.5 95.29 25.9C96.03 26.3 96.86 26.5 97.78 26.5C98.58 26.5 99.32 26.32 100 25.96C100.7 25.6 101.29 25.04 101.77 24.28L104.65 25.96C104.03 27.16 103.12 28.09 101.92 28.75C100.74 29.39 99.37 29.71 97.81 29.71ZM114.672 29.71C113.312 29.71 112.112 29.46 111.072 28.96C110.032 28.44 109.222 27.66 108.642 26.62C108.062 25.56 107.772 24.23 107.772 22.63V13.48H111.522V22.12C111.522 23.56 111.842 24.64 112.482 25.36C113.142 26.06 114.072 26.41 115.272 26.41C116.152 26.41 116.912 26.23 117.552 25.87C118.212 25.51 118.722 24.97 119.082 24.25C119.462 23.53 119.652 22.64 119.652 21.58V13.48H123.402V29.5H119.832V25.18L120.462 26.5C119.922 27.54 119.132 28.34 118.092 28.9C117.052 29.44 115.912 29.71 114.672 29.71ZM137.192 29.71C135.892 29.71 134.702 29.41 133.622 28.81C132.562 28.21 131.712 27.31 131.072 26.11C130.452 24.89 130.142 23.35 130.142 21.49C130.142 19.61 130.442 18.07 131.042 16.87C131.662 15.67 132.502 14.78 133.562 14.2C134.622 13.6 135.832 13.3 137.192 13.3C138.772 13.3 140.162 13.64 141.362 14.32C142.582 15 143.542 15.95 144.242 17.17C144.962 18.39 145.322 19.83 145.322 21.49C145.322 23.15 144.962 24.6 144.242 25.84C143.542 27.06 142.582 28.01 141.362 28.69C140.162 29.37 138.772 29.71 137.192 29.71ZM128.312 35.32V13.48H131.882V17.26L131.762 21.52L132.062 25.78V35.32H128.312ZM136.772 26.5C137.672 26.5 138.472 26.3 139.172 25.9C139.892 25.5 140.462 24.92 140.882 24.16C141.302 23.4 141.512 22.51 141.512 21.49C141.512 20.45 141.302 19.56 140.882 18.82C140.462 18.06 139.892 17.48 139.172 17.08C138.472 16.68 137.672 16.48 136.772 16.48C135.872 16.48 135.062 16.68 134.342 17.08C133.622 17.48 133.052 18.06 132.632 18.82C132.212 19.56 132.002 20.45 132.002 21.49C132.002 22.51 132.212 23.4 132.632 24.16C133.052 24.92 133.622 25.5 134.342 25.9C135.062 26.3 135.872 26.5 136.772 26.5ZM153.828 29.71C152.488 29.71 151.198 29.54 149.958 29.2C148.738 28.84 147.768 28.41 147.048 27.91L148.488 25.06C149.208 25.52 150.068 25.9 151.068 26.2C152.068 26.5 153.068 26.65 154.068 26.65C155.248 26.65 156.098 26.49 156.618 26.17C157.158 25.85 157.428 25.42 157.428 24.88C157.428 24.44 157.248 24.11 156.888 23.89C156.528 23.65 156.058 23.47 155.478 23.35C154.898 23.23 154.248 23.12 153.528 23.02C152.828 22.92 152.118 22.79 151.398 22.63C150.698 22.45 150.058 22.2 149.478 21.88C148.898 21.54 148.428 21.09 148.068 20.53C147.708 19.97 147.528 19.23 147.528 18.31C147.528 17.29 147.818 16.41 148.398 15.67C148.978 14.91 149.788 14.33 150.828 13.93C151.888 13.51 153.138 13.3 154.578 13.3C155.658 13.3 156.748 13.42 157.848 13.66C158.948 13.9 159.858 14.24 160.578 14.68L159.138 17.53C158.378 17.07 157.608 16.76 156.828 16.6C156.068 16.42 155.308 16.33 154.548 16.33C153.408 16.33 152.558 16.5 151.998 16.84C151.458 17.18 151.188 17.61 151.188 18.13C151.188 18.61 151.368 18.97 151.728 19.21C152.088 19.45 152.558 19.64 153.138 19.78C153.718 19.92 154.358 20.04 155.058 20.14C155.778 20.22 156.488 20.35 157.188 20.53C157.888 20.71 158.528 20.96 159.108 21.28C159.708 21.58 160.188 22.01 160.548 22.57C160.908 23.13 161.088 23.86 161.088 24.76C161.088 25.76 160.788 26.63 160.188 27.37C159.608 28.11 158.778 28.69 157.698 29.11C156.618 29.51 155.328 29.71 153.828 29.71Z" fill="#616161"/>
<ellipse cx="74.5" cy="19" rx="10.5" ry="12.5" fill="#E57F32"/>
</svg>
